<?xml version="1.0" encoding="utf-8"?>
<!-- Generator: Adobe Illustrator 28.0.0, SVG Export Plug-In . SVG Version: 6.00 Build 0)  -->
<svg version="1.1" id="レイヤー_1" xmlns="http://www.w3.org/2000/svg" xmlns:xlink="http://www.w3.org/1999/xlink" x="0px"
	 y="0px" viewBox="0 0 512 512" style="enable-background:new 0 0 512 512;" xml:space="preserve">
<style type="text/css">
	.st0{fill:#294052;}
	.st1{fill:#FFFFFF;}
	.st2{fill:#4B4B4B;}
	.st3{fill:#00FFFF;}
</style>
<path class="st0" d="M445.16,196.5c7.6-35.28-2.49-74.38-49.78-95.28c-29.72-13.14-78.6-14.34-88.01-16.9
	c-9.41-2.56-52.1-26.27-84.44-30.02c-51.36-5.93-79.81,22.68-91.18,56.94c-11.58,35.02-9.56,105.74-10.1,233.79
	c-0.15,41.36,13.48,48.24,28.62,52.36c13.67,3.72,32.24-1.51,44.51-24.36l26.82-57.36c6.82-10.6,15.32-18.74,27.07-15.54
	c11.81,3.21,15.01,14.54,15.52,27.13l-5.99,63.02c-0.95,25.93,12.42,39.85,26.03,43.55c15.2,4.14,30.38,5.09,51.2-30.64
	C399.89,292.53,437.4,232.56,445.16,196.5z"/>
<path class="st1" d="M286.03,162.79c-18.65-5.07-35.36-17.25-45.7-35.34l14.75-8.44c16.04,28.03,51.85,37.77,79.88,21.73l8.44,14.74
	C325.3,165.84,304.72,167.87,286.03,162.79z"/>
<path class="st0" d="M16.54,409.65l-12.2-18.3l-0.11,0.07c1.05-0.74,25.73-18.66,20.61-67.29c-3.35-31.87,5.62-54.78,24-61.29
	c13.23-4.69,28.69-0.09,45.93,13.67c17.02,13.58,35.89,36.23,56.07,67.31l-18.45,11.98c-18.89-29.1-36.17-49.99-51.34-62.1
	c-10.45-8.33-19.51-12.02-24.86-10.13c-8.54,3.03-11.23,21.53-9.47,38.25C53.3,384.38,18.04,408.65,16.54,409.65z"/>
<path class="st0" d="M438.52,478.73c-1.24-1.32-30.14-32.9-9.66-92.36c5.48-15.9,7.02-34.54-0.62-39.4
	c-4.79-3.05-14.45-1.49-26.51,4.28c-17.51,8.38-39.04,24.86-64,48.96l-15.28-15.82c26.66-25.75,50.13-43.57,69.78-52.98
	c19.9-9.53,35.99-10.54,47.83-2.99c16.45,10.48,20.04,34.83,9.6,65.12c-15.92,46.23,4.09,69.24,4.95,70.2l-0.09-0.09L438.52,478.73z
	"/>
<path class="st0" d="M76.1,187.97c-0.19-11.76,4.41-18.24,7.76-22.96c2.59-3.65,3.77-5.31,3.7-9.86c-0.07-4.55-1.31-6.17-4.02-9.73
	c-3.51-4.61-8.32-10.93-8.51-22.69c-0.19-11.76,4.41-18.23,7.77-22.96c2.59-3.65,3.77-5.31,3.7-9.85c-0.08-4.54-1.31-6.17-4.02-9.73
	c-3.51-4.61-8.32-10.93-8.51-22.69c-0.19-11.76,4.41-18.23,7.77-22.96c2.59-3.65,3.77-5.31,3.7-9.85l22-0.36
	c0.19,11.76-4.41,18.23-7.77,22.96c-2.59,3.65-3.77,5.31-3.7,9.85c0.08,4.54,1.31,6.17,4.02,9.73c3.51,4.61,8.32,10.93,8.51,22.69
	c0.19,11.76-4.41,18.23-7.77,22.96c-2.59,3.65-3.77,5.31-3.7,9.85s1.31,6.17,4.02,9.73c3.51,4.61,8.32,10.93,8.51,22.7
	c0.19,11.76-4.41,18.23-7.77,22.96c-2.59,3.65-3.77,5.31-3.7,9.86L76.1,187.97z"/>
<path class="st0" d="M432.71,315.14l-19.9-9.38c5.01-10.64,12-14.42,17.09-17.18c3.93-2.13,5.73-3.1,7.67-7.21
	c1.94-4.11,1.54-6.12,0.68-10.5c-1.12-5.69-2.65-13.48,2.37-24.12c5.01-10.64,12-14.42,17.09-17.18c3.93-2.13,5.73-3.1,7.67-7.21
	c1.94-4.11,1.54-6.11,0.68-10.5c-1.12-5.69-2.65-13.48,2.37-24.12c5.01-10.64,12-14.42,17.09-17.18c3.93-2.13,5.73-3.1,7.66-7.21
	l19.9,9.38c-5.01,10.64-12,14.42-17.09,17.18c-3.93,2.13-5.73,3.1-7.66,7.21c-1.94,4.11-1.54,6.12-0.68,10.5
	c1.12,5.69,2.65,13.48-2.37,24.12c-5.01,10.64-12,14.42-17.09,17.18c-3.93,2.13-5.73,3.1-7.67,7.21c-1.94,4.11-1.54,6.12-0.68,10.5
	c1.12,5.69,2.65,13.48-2.37,24.12s-12,14.42-17.09,17.18C436.45,310.06,434.65,311.03,432.71,315.14z"/>
</svg>
