<?xml version="1.0" encoding="utf-8"?>
<!-- Generator: Adobe Illustrator 28.0.0, SVG Export Plug-In . SVG Version: 6.00 Build 0)  -->
<svg version="1.1" id="レイヤー_1" xmlns="http://www.w3.org/2000/svg" xmlns:xlink="http://www.w3.org/1999/xlink" x="0px"
	 y="0px" viewBox="0 0 512 512" style="enable-background:new 0 0 512 512;" xml:space="preserve">
<style type="text/css">
	.st0{fill:#294052;}
	.st1{fill:#FFFFFF;}
	.st2{fill:#4B4B4B;}
	.st3{fill:#00FFFF;}
</style>
<path class="st0" d="M386.5,143.04c-19.34-15.09-38.9-20.3-56.2-20.19c-13.23,0.02-25.06,2.71-35.54,5.08
	c-10.48,2.44-19.63,4.48-27.22,4.45c-7.58,0.03-16.72-2.01-27.21-4.45c-10.47-2.38-22.3-5.06-35.53-5.08
	c-17.3-0.11-36.86,5.09-56.2,20.2c-14.36,11.07-24.79,25.58-31.35,42.15c-6.59,16.59-9.48,35.19-9.49,55.19
	c0.02,30.64,6.76,64.72,18.49,100.91c12.1,37.34,22.48,64.79,30.15,84.75c3.83,9.97,6.98,18.07,9.28,24.47
	c2.31,6.36,3.75,11.11,4.23,13.76c1.89,10.23,6.61,18.93,13.35,24.97c6.72,6.04,15.33,9.24,23.94,9.23
	c8.9,0.01,17.75-3.36,24.82-9.58c7.1-6.21,12.36-15.18,14.9-26.04c0.74-3.19,1.21-6.54,1.68-10.31c0.8-6.56,1.51-14.32,2.53-22.3
	c1.48-11.93,3.86-24.41,7.4-32.45c1.71-4.03,3.67-6.78,5.13-8.05c1.54-1.27,2.08-1.47,3.89-1.57c1.42,0.04,1.99,0.25,2.94,0.83
	c1.6,0.93,4.35,4.25,6.59,9.97c3.45,8.46,5.68,21.1,7.11,32.98c0.74,5.95,1.31,11.75,1.89,16.96c0.6,5.25,1.15,9.78,2.11,13.94
	c2.54,10.86,7.79,19.83,14.89,26.04c7.07,6.23,15.93,9.59,24.82,9.58c8.61,0.02,17.22-3.19,23.94-9.23
	c6.75-6.03,11.46-14.73,13.36-24.96c0.48-2.65,1.92-7.4,4.23-13.76c6.95-19.29,21.3-53.27,39.43-109.22
	c11.73-36.18,18.47-70.27,18.48-100.91c0-20-2.89-38.6-9.48-55.19C411.28,168.63,400.86,154.11,386.5,143.04z"/>
<path class="st1" d="M384.6,333.44c-11.92,36.77-22.08,63.65-29.7,83.48c-3.81,9.92-6.98,18.08-9.46,24.94
	c-2.47,6.9-4.29,12.44-5.3,17.72c-1.07,5.55-3.19,8.74-5.32,10.66c-2.16,1.92-4.46,2.7-6.92,2.73c-2.54-0.02-5.3-0.9-8-3.25
	c-2.67-2.36-5.35-6.29-6.88-12.72c-0.34-1.44-0.79-4.19-1.2-7.57c-0.73-5.95-1.46-13.91-2.54-22.43c-1.69-12.85-4-26.97-9.27-39.33
	c-2.69-6.17-6.18-12.09-11.53-16.93c-5.26-4.84-12.89-8.18-20.93-8.08c-6.09-0.03-12.05,1.81-16.79,4.91
	c-8.36,5.53-13.01,13.6-16.39,21.87c-4.98,12.51-7.16,26.67-8.75,39.37c-0.79,6.33-1.37,12.27-1.93,17.24
	c-0.55,4.94-1.12,9.03-1.59,10.94c-1.52,6.43-4.21,10.35-6.88,12.7c-2.71,2.36-5.46,3.25-8,3.25c-2.47-0.02-4.76-0.81-6.92-2.71
	c-2.13-1.92-4.25-5.11-5.32-10.65c-1.01-5.29-2.82-10.83-5.3-17.73c-7.41-20.49-21.26-53.21-39.16-108.42
	c-11.17-34.42-17.26-66.19-17.24-93.05c-0.01-17.54,2.57-32.94,7.68-45.77c5.14-12.84,12.66-23.19,23.24-31.39
	c15.48-11.84,27.95-14.76,40.6-14.87c9.66-0.01,19.51,2.05,29.84,4.44c10.33,2.33,21.11,5.04,32.9,5.08
	c11.8-0.04,22.58-2.75,32.9-5.08c10.34-2.38,20.19-4.45,29.85-4.44c12.64,0.11,25.11,3.04,40.6,14.87
	c10.59,8.2,18.11,18.54,23.24,31.39c5.11,12.83,7.68,28.22,7.68,45.77C401.85,267.25,395.77,299.03,384.6,333.44z"/>
<path class="st0" d="M461.16,46.1l-43.59-11.55c-1.14-0.25-2.07-1.17-2.32-2.32l-11.5-43.59c-0.3-1.27-1.43-2.17-2.74-2.17
	c-1.31,0-2.44,0.9-2.74,2.17l-11.49,43.59c-0.26,1.15-1.18,2.06-2.33,2.32L340.87,46.1c-1.28,0.25-2.18,1.39-2.18,2.7
	c0,1.31,0.9,2.44,2.18,2.69l43.59,11.56c1.14,0.24,2.06,1.17,2.33,2.32l11.49,43.58c0.3,1.28,1.43,2.18,2.74,2.18
	c1.31,0,2.43-0.9,2.74-2.18l11.5-43.58c0.24-1.15,1.18-2.08,2.32-2.32l43.59-11.56c1.28-0.25,2.18-1.38,2.18-2.69
	C463.35,47.48,462.44,46.35,461.16,46.1z"/>
<path class="st0" d="M268.72,242.22l-39.81-10.55c-1.04-0.23-1.89-1.07-2.11-2.11l-10.5-39.81c-0.28-1.16-1.31-1.99-2.5-1.99
	c-1.2,0-2.22,0.83-2.5,1.99l-10.49,39.8c-0.24,1.05-1.08,1.89-2.12,2.11l-39.81,10.55c-1.17,0.23-1.99,1.27-1.99,2.46
	c0,1.2,0.82,2.23,1.99,2.46l39.81,10.55c1.04,0.22,1.89,1.07,2.12,2.11l10.49,39.8c0.28,1.17,1.31,1.99,2.5,1.99
	c1.2,0,2.22-0.82,2.5-1.99l10.5-39.8c0.22-1.05,1.07-1.89,2.11-2.11l39.81-10.55c1.17-0.23,1.99-1.26,1.99-2.46
	C270.71,243.48,269.89,242.45,268.72,242.22z"/>
<path class="st0" d="M109.73,117.19l33.76-8.94c0.99-0.19,1.69-1.07,1.69-2.09c0-1.01-0.7-1.89-1.69-2.09l-33.76-8.94
	c-0.88-0.19-1.6-0.9-1.79-1.79l-8.9-33.75c-0.24-0.98-1.11-1.68-2.12-1.68c-1.01,0-1.89,0.7-2.12,1.68L85.9,93.33
	c-0.2,0.89-0.92,1.6-1.8,1.79l-33.76,8.94c-0.99,0.19-1.69,1.08-1.69,2.09c0,1.02,0.7,1.89,1.69,2.09l33.76,8.94
	c0.88,0.19,1.6,0.9,1.8,1.79l8.9,33.75c0.24,0.99,1.11,1.68,2.12,1.68c1.01,0,1.89-0.69,2.12-1.68l8.9-33.75
	C108.13,118.09,108.85,117.37,109.73,117.19z"/>
</svg>
