<?xml version="1.0" encoding="utf-8"?>
<!-- Generator: Adobe Illustrator 28.0.0, SVG Export Plug-In . SVG Version: 6.00 Build 0)  -->
<svg version="1.1" id="レイヤー_1" xmlns="http://www.w3.org/2000/svg" xmlns:xlink="http://www.w3.org/1999/xlink" x="0px"
	 y="0px" viewBox="0 0 512 512" style="enable-background:new 0 0 512 512;" xml:space="preserve">
<style type="text/css">
	.st0{fill:#294052;}
	.st1{fill:#FFFFFF;}
	.st2{fill:#4B4B4B;}
	.st3{fill:#00FFFF;}
</style>
<g>
	<path class="st0" d="M256,243c20.33,0,65.33-1.8,92.47-36.6c36.14-46.37,48.64-130.49-0.09-165.47
		C307.8,11.8,273.15,34.64,256,34.64c-17.15,0-51.8-22.84-92.37,6.28c-48.72,34.98-36.24,119.1-0.09,165.47
		C190.67,241.2,235.68,243,256,243z"/>
	<polygon class="st0" points="299.81,258.7 213.23,258.7 203.04,258.7 213.23,286.23 299.81,286.23 309.99,258.7 	"/>
	<polygon class="st0" points="286.09,387.79 292.95,369.25 220.96,369.25 227.82,387.79 	"/>
	<polygon class="st0" points="296.12,297.17 216.92,297.17 207.6,309.76 216.92,322.35 296.12,322.35 305.44,309.76 	"/>
	<polygon class="st0" points="305.44,344.61 296.12,332.03 216.92,332.03 207.6,344.61 216.92,357.2 296.12,357.2 	"/>
	<path class="st0" d="M382.18,187.63c0,0-17.89,45.88-47.72,64.24c-9.17,11.47-15.99,95.46-15.99,95.46
		c-0.35,2.13-0.93,4.22-1.71,6.22l-11.7,29.9c-4.68,11.97-16.22,19.84-29.07,19.84H256h-19.99c-12.85,0-24.39-7.87-29.07-19.84
		l-11.7-29.9c-0.79-2-1.36-4.09-1.72-6.22c0,0-6.82-83.98-15.99-95.46c-29.82-18.36-47.72-64.24-47.72-64.24H70.17v298.25H256
		h185.83V187.63H382.18z M421.19,465.23H256H90.81V313.81h78.58c1.38,11.61,2.62,23.83,3.55,35.19l0.07,0.87l0.15,0.87
		c0.59,3.54,1.55,7.02,2.85,10.34l11.7,29.9c7.83,20.03,26.79,32.97,48.3,32.97H256h19.99c21.51,0,40.47-12.94,48.3-32.97
		l11.69-29.88c1.31-3.33,2.27-6.82,2.86-10.36l0.15-0.87l0.07-0.87c0.93-11.36,2.16-23.58,3.55-35.19h78.58L421.19,465.23
		L421.19,465.23z"/>
	<path class="st0" d="M256.85,442.29c-3.8,0-6.88,3.09-6.88,6.88c0,3.8,3.08,6.88,6.88,6.88c3.8,0,6.88-3.08,6.88-6.88
		C263.74,445.38,260.65,442.29,256.85,442.29z"/>
	<path class="st0" d="M114.6,361.99c3.8,0,6.88-3.08,6.88-6.88c0-3.8-3.08-6.88-6.88-6.88c-3.8,0-6.88,3.09-6.88,6.88
		C107.72,358.9,110.8,361.99,114.6,361.99z"/>
	<path class="st0" d="M146.73,338.59c-3.8,0-6.88,3.08-6.88,6.88s3.08,6.88,6.88,6.88c3.8,0,6.88-3.08,6.88-6.88
		C153.61,341.68,150.53,338.59,146.73,338.59z"/>
	<path class="st0" d="M142.6,386.31c0-3.8-3.09-6.88-6.88-6.88c-3.8,0-6.88,3.09-6.88,6.88c0,3.8,3.08,6.88,6.88,6.88
		C139.52,393.19,142.6,390.11,142.6,386.31z"/>
	<path class="st0" d="M165.08,406.04c-3.8,0-6.88,3.09-6.88,6.88c0,3.8,3.08,6.88,6.88,6.88s6.88-3.08,6.88-6.88
		C171.96,409.12,168.88,406.04,165.08,406.04z"/>
	<path class="st0" d="M142.13,442.29c-3.8,0-6.88,3.09-6.88,6.88c0,3.8,3.09,6.88,6.88,6.88c3.8,0,6.88-3.08,6.88-6.88
		S145.94,442.29,142.13,442.29z"/>
	<path class="st0" d="M194.91,442.29c-3.8,0-6.88,3.09-6.88,6.88c0,3.8,3.08,6.88,6.88,6.88c3.8,0,6.88-3.08,6.88-6.88
		S198.71,442.29,194.91,442.29z"/>
	<path class="st0" d="M115.97,410.17c-3.8,0-6.88,3.09-6.88,6.88c0,3.8,3.08,6.88,6.88,6.88c3.8,0,6.88-3.08,6.88-6.88
		C122.86,413.26,119.78,410.17,115.97,410.17z"/>
	<path class="st0" d="M397.72,361.99c3.8,0,6.88-3.08,6.88-6.88c0-3.8-3.08-6.88-6.88-6.88c-3.8,0-6.88,3.09-6.88,6.88
		C390.84,358.9,393.92,361.99,397.72,361.99z"/>
	<path class="st0" d="M365.59,352.36c3.8,0,6.88-3.08,6.88-6.88s-3.08-6.88-6.88-6.88c-3.8,0-6.88,3.08-6.88,6.88
		C358.71,349.27,361.79,352.36,365.59,352.36z"/>
	<path class="st0" d="M369.72,386.31c0,3.8,3.09,6.88,6.88,6.88c3.8,0,6.88-3.08,6.88-6.88c0-3.8-3.08-6.88-6.88-6.88
		C372.8,379.43,369.72,382.51,369.72,386.31z"/>
	<path class="st0" d="M340.36,412.92c0,3.8,3.08,6.88,6.88,6.88c3.8,0,6.88-3.08,6.88-6.88c0-3.8-3.08-6.88-6.88-6.88
		C343.44,406.04,340.36,409.12,340.36,412.92z"/>
	<path class="st0" d="M370.19,442.29c-3.8,0-6.88,3.09-6.88,6.88c0,3.8,3.08,6.88,6.88,6.88c3.8,0,6.88-3.08,6.88-6.88
		C377.07,445.38,373.99,442.29,370.19,442.29z"/>
	<path class="st0" d="M317.41,442.29c-3.8,0-6.88,3.09-6.88,6.88c0,3.8,3.09,6.88,6.88,6.88c3.8,0,6.88-3.08,6.88-6.88
		S321.22,442.29,317.41,442.29z"/>
	<path class="st0" d="M396.35,423.93c3.8,0,6.88-3.08,6.88-6.88c0-3.8-3.09-6.88-6.88-6.88c-3.8,0-6.88,3.09-6.88,6.88
		C389.47,420.85,392.54,423.93,396.35,423.93z"/>
</g>
<path class="st1" d="M421.14,465.23V313.81h-78.58c-1.38,11.61-2.62,23.83-3.55,35.19l-0.07,0.87l-0.15,0.87
	c-0.59,3.54-1.55,7.02-2.86,10.36l-11.69,29.88c-7.83,20.03-26.79,32.97-48.3,32.97h-19.99h-19.99c-21.51,0-40.47-12.94-48.3-32.97
	l-11.7-29.9c-1.3-3.31-2.26-6.8-2.85-10.34l-0.15-0.87L172.9,349c-0.93-11.36-2.16-23.58-3.55-35.19H90.77v151.42h165.19H421.14z
	 M370.14,456.06c-3.8,0-6.88-3.08-6.88-6.88c0-3.8,3.08-6.88,6.88-6.88c3.8,0,6.88,3.08,6.88,6.88S373.94,456.06,370.14,456.06z
	 M397.68,348.22c3.8,0,6.88,3.09,6.88,6.88c0,3.8-3.08,6.88-6.88,6.88c-3.8,0-6.88-3.09-6.88-6.88S393.87,348.22,397.68,348.22z
	 M396.3,410.17c3.8,0,6.88,3.09,6.88,6.88c0,3.8-3.09,6.88-6.88,6.88c-3.8,0-6.88-3.08-6.88-6.88
	C389.42,413.25,392.5,410.17,396.3,410.17z M383.44,386.31c0,3.8-3.08,6.88-6.88,6.88c-3.8,0-6.88-3.08-6.88-6.88
	c0-3.8,3.09-6.88,6.88-6.88C380.36,379.43,383.44,382.51,383.44,386.31z M365.55,338.59c3.8,0,6.88,3.08,6.88,6.88
	s-3.08,6.88-6.88,6.88c-3.8,0-6.88-3.09-6.88-6.88C358.66,341.68,361.75,338.59,365.55,338.59z M347.2,406.04
	c3.8,0,6.88,3.09,6.88,6.88c0,3.8-3.08,6.88-6.88,6.88c-3.8,0-6.88-3.08-6.88-6.88C340.31,409.12,343.39,406.04,347.2,406.04z
	 M317.37,442.29c3.81,0,6.88,3.08,6.88,6.88s-3.08,6.88-6.88,6.88c-3.8,0-6.88-3.08-6.88-6.88
	C310.48,445.38,313.57,442.29,317.37,442.29z M114.56,348.22c3.8,0,6.88,3.09,6.88,6.88c0,3.8-3.08,6.88-6.88,6.88
	c-3.8,0-6.88-3.09-6.88-6.88S110.76,348.22,114.56,348.22z M115.93,423.93c-3.8,0-6.88-3.08-6.88-6.88c0-3.8,3.08-6.88,6.88-6.88
	c3.8,0,6.88,3.09,6.88,6.88C122.81,420.85,119.73,423.93,115.93,423.93z M128.79,386.31c0-3.8,3.08-6.88,6.88-6.88
	c3.8,0,6.88,3.09,6.88,6.88c0,3.8-3.09,6.88-6.88,6.88C131.87,393.19,128.79,390.11,128.79,386.31z M142.09,456.06
	c-3.8,0-6.88-3.08-6.88-6.88c0-3.8,3.09-6.88,6.88-6.88c3.8,0,6.88,3.08,6.88,6.88S145.89,456.06,142.09,456.06z M146.68,352.36
	c-3.8,0-6.88-3.08-6.88-6.88s3.08-6.88,6.88-6.88c3.8,0,6.88,3.08,6.88,6.88S150.48,352.36,146.68,352.36z M165.03,419.8
	c-3.8,0-6.88-3.08-6.88-6.88c0-3.8,3.08-6.88,6.88-6.88c3.8,0,6.88,3.09,6.88,6.88C171.92,416.72,168.84,419.8,165.03,419.8z
	 M194.86,456.06c-3.8,0-6.88-3.08-6.88-6.88c0-3.8,3.08-6.88,6.88-6.88c3.8,0,6.88,3.08,6.88,6.88S198.66,456.06,194.86,456.06z
	 M249.93,449.17c0-3.8,3.08-6.88,6.88-6.88c3.8,0,6.88,3.08,6.88,6.88c0,3.8-3.09,6.88-6.88,6.88
	C253,456.06,249.93,452.97,249.93,449.17z"/>
</svg>
