<?xml version="1.0" encoding="utf-8"?>
<!-- Generator: Adobe Illustrator 28.0.0, SVG Export Plug-In . SVG Version: 6.00 Build 0)  -->
<svg version="1.1" id="レイヤー_1" xmlns="http://www.w3.org/2000/svg" xmlns:xlink="http://www.w3.org/1999/xlink" x="0px"
	 y="0px" viewBox="0 0 512 512" style="enable-background:new 0 0 512 512;" xml:space="preserve">
<style type="text/css">
	.st0{fill:#294052;}
	.st1{fill:#FFFFFF;}
	.st2{fill:#4B4B4B;}
	.st3{fill:#00FFFF;}
</style>
<path class="st0" d="M324.14,216.55c-9.49-15.48-22.9-25.67-37.16-31.24c-14.34-5.56-29.24-7.05-43.65-7.05
	c-2.35,0-4.71,0.07-6.99,0.14c-9.33,0.29-18.32,1.07-26.81,1.86c-10.47,0.92-20.18,1.84-27.95,1.84c-7.77,0-17.47-0.92-27.95-1.84
	c-10.56-1.01-22.04-2-33.81-2c-9.62,0-19.39,0.63-29.16,2.77c-14.56,3.07-29.17,9.63-40.94,21.76
	c-11.84,12.12-20.32,29.09-24.74,51.42c-2.21,10.9-3.14,21.96-3.14,33.01c0,34.15,8.99,68.03,19.61,98.77
	c10.63,30.66,23.11,58.4,30.46,79.01c5.2,14.69,12.34,26.1,21.04,34.16c8.7,8.05,19.25,12.83,30.09,12.83
	c9.91,0,19.54-4.13,26.52-11.13c7.07-6.92,11.77-16.33,13.91-27.17c1.93-9.77,2.77-20.03,3.64-30.09
	c0.64-7.48,1.21-14.83,2.07-21.39c1.21-9.91,3.42-18.11,5.78-21.97c1.14-2,2.07-2.84,2.84-3.35c0.79-0.44,1.51-0.86,3.78-0.86
	c2,0,2.85,0.36,3.57,0.71c0.57,0.29,1.14,0.79,2,1.86c1.43,1.7,3.21,5.41,4.49,10.7c2,7.77,3.13,18.53,4.07,29.86
	c0.92,11.41,1.77,23.32,3.98,34.52c2.14,10.84,6.85,20.25,13.91,27.25c6.99,6.92,16.62,11.05,26.52,11.05
	c10.84,0,21.46-4.79,30.09-12.83c8.71-8.07,15.83-19.47,21.04-34.16c7.35-20.61,19.83-48.35,30.46-79.01
	c10.62-30.74,19.61-64.61,19.61-98.77v-0.36c0-10.92-0.93-21.9-3.14-32.66C335.19,239.29,330.48,226.82,324.14,216.55z"/>
<path class="st1" d="M310.94,313.04c-2.92,21.25-9.06,42.93-16.19,63.61c-10.13,29.24-22.31,56.41-30.31,78.8
	c-4.06,11.33-9.12,18.69-13.61,22.82c-4.57,4.13-8.2,5.13-10.7,5.2c-2.36-0.07-4.28-0.77-6.56-2.92c-2.29-2.21-4.64-6.2-5.91-12.4
	c-1.51-7.5-2.36-16.9-3.14-26.88c-0.64-7.43-1.29-15.12-2.21-22.75c-1.57-11.41-3.64-22.47-9.34-32.52
	c-2.92-4.99-6.92-9.85-12.41-13.27c-5.5-3.5-12.2-5.28-18.97-5.2c-5.98,0-11.98,1.35-17.12,4.13c-4.41,2.43-8.12,5.78-10.98,9.41
	c-4.98,6.49-7.63,13.69-9.55,21.11c-2.85,11.12-3.92,23.1-4.85,34.65c-1,11.55-1.85,22.68-3.57,31.31c-1.29,6.2-3.64,10.2-5.93,12.4
	c-2.35,2.15-4.2,2.85-6.56,2.92c-2.49-0.07-6.13-1.07-10.69-5.2c-4.5-4.13-9.56-11.48-13.62-22.82
	c-7.99-22.39-20.18-49.56-30.31-78.8c-10.13-29.24-18.11-60.41-18.04-89.42c0-9.42,0.78-18.62,2.57-27.46
	c2.43-12.19,6.13-21.32,10.35-28.24c6.41-10.26,13.98-15.83,23.39-19.68c9.4-3.71,20.82-5.06,33.15-5.06
	c10.06,0,20.69,0.86,31.16,1.85c10.48,0.92,20.76,2,30.6,2s20.11-1.08,30.6-2c3.22-0.31,6.41-0.51,9.63-0.77l3.74,8.74l-14.49,9.62
	l-28.31,18.89l53.48,17.84l-17.82,53.48l49.92-21.39l10.69,57.04l12.91-20.03l19.18-29.88l0.95,0.32
	C311.76,306,311.44,309.51,310.94,313.04z"/>
<polygon class="st0" points="304.4,182.1 384.83,87.82 346.01,79.49 376.5,0 284.99,107.24 332.14,110 "/>
<polygon class="st0" points="512,119.32 379.38,167.16 418.96,192.92 359.17,241.83 475.73,199.74 446.12,173.29 "/>
</svg>
