<?xml version="1.0" encoding="utf-8"?>
<!-- Generator: Adobe Illustrator 28.0.0, SVG Export Plug-In . SVG Version: 6.00 Build 0)  -->
<svg version="1.1" id="レイヤー_1" xmlns="http://www.w3.org/2000/svg" xmlns:xlink="http://www.w3.org/1999/xlink" x="0px"
	 y="0px" viewBox="0 0 512 512" style="enable-background:new 0 0 512 512;" xml:space="preserve">
<style type="text/css">
	.st0{fill:#294052;}
	.st1{fill:#FFFFFF;}
	.st2{fill:#4B4B4B;}
	.st3{fill:#00FFFF;}
</style>
<path class="st0" d="M432.52,170.7c-2.09-39.17-23.84-77.29-79.39-85.73c-34.92-5.3-86.53,7.39-97.12,7.39
	c-10.59,0-62.14-12.69-97.13-7.39c-55.55,8.44-77.23,46.56-79.39,85.73c-2.16,40.03,20.14,113.63,56.11,248.08
	c11.64,43.42,27.9,46.75,44.96,46.75c15.4,0,33.38-10.78,39.73-38.25l11.76-67.81c4.13-13.06,10.72-24.02,23.96-24.02
	c13.3,0,19.89,10.96,24.02,24.02l11.7,67.81c6.41,27.47,24.39,38.25,39.73,38.25c17.12,0,33.32-3.33,44.96-46.75
	C412.44,284.33,434.67,210.73,432.52,170.7z"/>
<path class="st1" d="M256,180.74c-21,0-42-8.01-58.02-24.02l13.06-13.06c24.82,24.82,65.16,24.82,89.98,0l13.06,13.06
	C298.06,172.73,277.06,180.74,256,180.74z"/>
<path class="st1" d="M333.82,228.35c-4.51-4.68-9.43-5.35-12.77-5.08c-20.97,1.66-34.95,20.23-47.28,36.61
	c-5.97,7.94-12.09,16.05-17.78,20.23c-5.69-4.17-11.8-12.29-17.78-20.23c-12.33-16.38-26.3-34.95-47.27-36.61
	c-3.34-0.26-8.26,0.4-12.77,5.08c-7.17,7.44-16.25,27.21-12.31,112.61c2.11,45.7,7.11,89.03,7.16,89.47
	c0.46,3.95,3.8,6.93,7.78,6.93c0.01,0,0.01,0,0.02,0c3.98-0.01,7.32-3,7.77-6.96c0.09-0.77,8.71-77.59,14.68-118.02
	c1-6.79,3.89-11.56,8.84-14.6c7.71-4.74,19.43-4.9,29.75-3.61c1.27,2.68,27.03,2.67,28.29-0.02c10.29-1.29,21.99-1.12,29.72,3.62
	c4.96,3.04,7.85,7.82,8.86,14.61c5.97,40.43,14.59,117.25,14.68,118.02c0.44,3.96,3.78,6.95,7.77,6.96c0.01,0,0.01,0,0.02,0
	c3.97,0,7.32-2.98,7.78-6.93c0.05-0.43,5.05-43.77,7.16-89.47C350.07,255.56,340.99,235.79,333.82,228.35z"/>
</svg>
