<?xml version="1.0" encoding="utf-8"?>
<!-- Generator: Adobe Illustrator 28.0.0, SVG Export Plug-In . SVG Version: 6.00 Build 0)  -->
<svg version="1.1" id="レイヤー_1" xmlns="http://www.w3.org/2000/svg" xmlns:xlink="http://www.w3.org/1999/xlink" x="0px"
	 y="0px" viewBox="0 0 512 512" style="enable-background:new 0 0 512 512;" xml:space="preserve">
<style type="text/css">
	.st0{fill:#294052;}
	.st1{fill:#FFFFFF;}
	.st2{fill:#4B4B4B;}
	.st3{fill:#00FFFF;}
</style>
<path class="st0" d="M460.25,147.16c-15.17-11.56-30.42-15.43-43.86-15.2c-10.29,0.13-19.46,2.33-27.58,4.27
	c-8.13,1.99-15.22,3.66-21.12,3.7c-5.89,0.09-13.02-1.42-21.19-3.22c-8.16-1.75-17.38-3.74-27.67-3.63
	c-13.45,0.07-28.61,4.28-43.51,16.2c-11.06,8.73-19.04,20.1-24,33.04c-4.98,12.95-7.06,27.44-6.89,42.99
	c0.28,23.82,5.83,50.25,15.27,78.28c9.74,28.92,18.05,50.17,24.19,65.62c3.06,7.71,5.58,13.98,7.43,18.94
	c1.85,4.92,3.01,8.6,3.41,10.66c1.56,7.94,5.31,14.66,10.6,19.29c5.28,4.63,12,7.05,18.69,6.96c6.91-0.07,13.77-2.77,19.21-7.67
	c5.46-4.89,9.47-11.91,11.35-20.38c0.55-2.48,0.88-5.09,1.21-8.03c0.57-5.11,1.05-11.15,1.77-17.36c1.05-9.29,2.78-19.01,5.46-25.29
	c1.3-3.15,2.79-5.3,3.92-6.3c1.19-1,1.6-1.16,3.01-1.26c1.11,0.02,1.55,0.18,2.3,0.62c1.25,0.71,3.42,3.27,5.21,7.69
	c2.76,6.55,4.6,16.35,5.82,25.58c0.63,4.62,1.12,9.12,1.62,13.17c0.52,4.08,0.98,7.59,1.76,10.82c2.07,8.42,6.23,15.34,11.81,20.11
	c5.55,4.78,12.47,7.31,19.38,7.23c6.69-0.06,13.36-2.63,18.53-7.39c5.19-4.75,8.78-11.55,10.16-19.52
	c0.35-2.06,1.43-5.77,3.16-10.73c5.23-15.06,16.08-41.6,29.68-85.25c8.79-28.23,13.73-54.79,13.47-78.61
	c-0.18-15.54-2.59-29.98-7.86-42.82C479.74,166.83,471.5,155.64,460.25,147.16z"/>
<path class="st1" d="M460.46,295.19c-8.94,28.69-16.6,49.67-22.34,65.16c-2.88,7.75-5.27,14.11-7.14,19.47
	c-1.86,5.39-3.23,9.71-3.96,13.82c-0.78,4.32-2.4,6.82-4.04,8.33c-1.66,1.51-3.44,2.14-5.35,2.19c-1.98,0.01-4.13-0.66-6.25-2.45
	c-2.1-1.81-4.22-4.84-5.46-9.82c-0.28-1.11-0.65-3.25-1-5.87c-0.62-4.62-1.26-10.8-2.17-17.41c-1.43-9.98-3.35-20.93-7.56-30.49
	c-2.15-4.77-4.91-9.34-9.11-13.06c-4.13-3.72-10.09-6.25-16.35-6.1c-4.74,0.03-9.35,1.51-13.01,3.97
	c-6.45,4.37-9.99,10.69-12.55,17.15c-3.76,9.77-5.33,20.8-6.46,30.69c-0.55,4.93-0.96,9.55-1.34,13.42
	c-0.38,3.84-0.79,7.03-1.14,8.52c-1.13,5.01-3.18,8.08-5.23,9.93c-2.09,1.86-4.22,2.57-6.19,2.59c-1.92,0.01-3.71-0.59-5.4-2.05
	c-1.67-1.47-3.35-3.94-4.23-8.23c-0.83-4.11-2.29-8.39-4.28-13.74c-5.94-15.87-17-41.17-31.41-83.93
	c-8.99-26.66-14-51.3-14.23-72.18c-0.17-13.64,1.7-25.63,5.57-35.65c3.88-10.03,9.63-18.14,17.79-24.61
	c11.93-9.34,21.59-11.72,31.43-11.92c7.51-0.09,15.19,1.42,23.24,3.19c8.05,1.72,16.45,3.73,25.62,3.66
	c9.17-0.14,17.52-2.34,25.53-4.24c8.01-1.95,15.65-3.64,23.17-3.72c9.83-0.03,19.54,2.14,31.69,11.2
	c8.3,6.28,14.24,14.25,18.35,24.2c4.09,9.93,6.22,21.87,6.38,35.51C473.29,243.58,468.84,268.34,460.46,295.19z"/>
<path class="st0" d="M305.16,194.5c-8.76-16.94-20.89-26.96-33.15-32.5c-9.35-4.28-18.58-6.22-26.75-7.94
	c-8.19-1.68-15.32-3.21-20.67-5.69c-5.36-2.43-11.16-6.85-17.78-11.97c-6.63-5.08-14.11-10.82-23.45-15.12
	c-12.19-5.69-27.69-8.37-46.26-3.97c-13.74,3.16-25.81,10.02-35.83,19.6c-10.04,9.58-18.12,21.78-24.62,35.91
	c-9.93,21.65-16.23,47.92-19.69,77.29c-3.57,30.3-5.15,53.06-6.2,69.66c-0.53,8.28-0.94,15.03-1.38,20.3
	c-0.43,5.24-0.96,9.07-1.48,11.09c-1.99,7.84-1.47,15.52,1.33,21.97c2.79,6.44,7.83,11.5,13.92,14.29
	c6.28,2.89,13.63,3.38,20.64,1.29c7.03-2.09,13.66-6.72,18.98-13.56c1.56-2.01,2.98-4.22,4.53-6.74c2.7-4.37,5.72-9.63,9.02-14.94
	c4.92-7.95,10.65-15.99,15.76-20.52c2.52-2.29,4.79-3.6,6.24-4.02c1.5-0.39,1.95-0.36,3.26,0.15c0.99,0.49,1.32,0.82,1.81,1.54
	c0.83,1.18,1.69,4.42,1.42,9.18c-0.31,7.1-2.83,16.75-5.68,25.61c-1.41,4.44-2.89,8.73-4.17,12.59c-1.28,3.9-2.36,7.28-3.03,10.53
	c-1.73,8.49-0.93,16.53,2.07,23.23c2.97,6.7,8.14,11.94,14.43,14.82c6.08,2.81,13.2,3.34,19.91,1.25
	c6.72-2.07,12.88-6.69,17.53-13.3c1.2-1.71,3.76-4.6,7.45-8.35c11.17-11.37,32.33-30.72,63.3-64.36
	c20.03-21.75,35.85-43.65,45.8-65.29c6.49-14.13,10.49-28.21,11.21-42.07C314.36,220.61,311.71,206.97,305.16,194.5z"/>
<path class="st1" d="M242.02,328.38c-20.36,22.11-36.25,37.8-48.07,49.33c-5.91,5.77-10.8,10.5-14.78,14.55
	c-3.99,4.07-7.07,7.39-9.49,10.8c-2.55,3.57-5.09,5.14-7.22,5.81c-2.15,0.66-4.02,0.46-5.77-0.31c-1.79-0.84-3.45-2.36-4.6-4.89
	c-1.12-2.53-1.74-6.18-0.73-11.22c0.22-1.13,0.81-3.22,1.61-5.73c1.42-4.44,3.48-10.3,5.48-16.67c2.98-9.63,5.93-20.35,6.21-30.79
	c0.1-5.23-0.44-10.55-2.65-15.7c-2.14-5.13-6.45-9.96-12.17-12.5c-4.29-2-9.1-2.63-13.46-1.98c-7.7,1.19-13.61,5.39-18.68,10.13
	c-7.58,7.22-13.72,16.52-18.96,24.97c-2.61,4.22-4.95,8.22-6.96,11.55c-1.99,3.31-3.72,6.02-4.67,7.21
	c-3.16,4.05-6.33,5.95-8.98,6.74c-2.68,0.79-4.91,0.52-6.71-0.3c-1.74-0.81-3.1-2.12-4.01-4.16c-0.88-2.05-1.34-4.99-0.3-9.25
	c1.01-4.07,1.52-8.57,2.01-14.24c1.42-16.88,2.25-44.49,7.52-89.3c3.28-27.94,9.29-52.36,18.02-71.33
	c5.69-12.4,12.5-22.44,20.28-29.84c7.8-7.41,16.47-12.28,26.61-14.63c14.78-3.34,24.53-1.36,33.51,2.67
	c6.83,3.13,13.12,7.78,19.64,12.82c6.54,5,13.28,10.41,21.59,14.27c8.35,3.8,16.84,5.38,24.89,7.09c8.08,1.67,15.7,3.41,22.53,6.55
	c8.9,4.18,16.75,10.3,23.86,23.68c4.82,9.23,6.77,18.97,6.23,29.72c-0.55,10.72-3.73,22.43-9.42,34.83
	C275.69,287.23,261.08,307.71,242.02,328.38z"/>
<path class="st0" d="M62.33,294.96c-14.15-6.97-28.06-23.11-41.36-47.97c-9.52-17.79-15.22-33.55-15.45-34.21l17.88-6.42l-8.94,3.21
	l8.94-3.21c5.87,16.31,25.82,60.95,47.34,71.56L62.33,294.96z"/>
<path class="st0" d="M466.51,353.51c-3.16,0-6.21-0.41-9.14-1.22l5.1-18.3c20.13,5.62,57.38-33.46,72.28-53.25l15.19,11.41
	c-0.53,0.7-13.07,17.33-29.99,33.05C499.69,344.02,481.77,353.51,466.51,353.51z"/>
</svg>
